<svg xmlns="http://www.w3.org/2000/svg" width="35.019" height="35.02" viewBox="0 0 35.019 35.02">
  <g id="グループ_558" data-name="グループ 558" transform="translate(-1015 -216)">
    <path id="envelope" d="M19.405,64H2.007A2.007,2.007,0,0,0,0,66.008V78.053A2.007,2.007,0,0,0,2.007,80.06h17.4a2.007,2.007,0,0,0,2.007-2.008V66.008A2.007,2.007,0,0,0,19.405,64Zm0,2.008v1.707c-.938.764-2.433,1.951-5.629,4.454-.7.554-2.1,1.885-3.07,1.87-.971.016-2.366-1.316-3.07-1.87-3.2-2.5-4.691-3.69-5.629-4.454V66.008ZM2.007,78.053V70.29c.958.763,2.317,1.834,4.389,3.457.914.72,2.515,2.308,4.31,2.3,1.787.01,3.367-1.556,4.31-2.3,2.071-1.622,3.431-2.693,4.389-3.457v7.763Z" transform="translate(1022.004 161.005)" fill="#333"/>
    <g id="楕円形_1" data-name="楕円形 1" transform="translate(1015 216)" fill="none" stroke="#333" stroke-width="2">
      <ellipse cx="17.509" cy="17.51" rx="17.509" ry="17.51" stroke="none"/>
      <ellipse cx="17.509" cy="17.51" rx="16.509" ry="16.51" fill="none"/>
    </g>
  </g>
</svg>
