<svg id="Layer_1" data-name="Layer 1" xmlns="http://www.w3.org/2000/svg" viewBox="0 0 35 35"><defs><style>.cls-1{fill:#fff100;stroke:#333;stroke-width:2px;}.cls-2{fill:#333;}</style></defs><title>mail_icon_yellow</title><g id="グループ_558" data-name="グループ 558"><circle class="cls-1" cx="17.5" cy="17.5" r="16.5"/><path id="envelope" class="cls-2" d="M26.4,9H9a2,2,0,0,0-2,2H7V23.1a2,2,0,0,0,2,2H26.4a2,2,0,0,0,2-2h0V11a2,2,0,0,0-2-2Zm0,2v1.7l-5.6,4.5c-.7.5-2.1,1.9-3.1,1.8s-2.4-1.3-3.1-1.8L9,12.7V11ZM9,23.1V15.3l4.4,3.5c.9.7,2.5,2.3,4.3,2.3s3.4-1.6,4.3-2.3l4.4-3.5v7.8Z"/></g></svg>